<svg width="8" height="7" viewBox="0 0 8 7" fill="none" xmlns="http://www.w3.org/2000/svg">
<path d="M4.56678 6.18091L7.37409 1.49432C7.43197 1.39409 7.46259 1.28045 7.46292 1.1647C7.46324 1.04895 7.43325 0.935141 7.37594 0.834582C7.31862 0.734025 7.23597 0.650227 7.13621 0.591528C7.03645 0.532828 6.92306 0.501272 6.80732 0.5H1.19271C1.07697 0.501272 0.963577 0.532828 0.86382 0.591528C0.764061 0.650227 0.681412 0.734025 0.624094 0.834582C0.566776 0.935141 0.536787 1.04895 0.537111 1.1647C0.537435 1.28045 0.56806 1.39409 0.625941 1.49432L3.43325 6.18091C3.49234 6.27832 3.57553 6.35885 3.67481 6.41474C3.77408 6.47064 3.88609 6.5 4.00001 6.5C4.11394 6.5 4.22595 6.47064 4.32522 6.41474C4.4245 6.35885 4.50769 6.27832 4.56678 6.18091Z" fill="white"/>
</svg>
