<svg width="22" height="23" viewBox="0 0 22 23" fill="none" xmlns="http://www.w3.org/2000/svg">
<path d="M8.5 18.9999C3.5 20.4999 3.5 16.4999 1.5 15.9999M15.5 21.9999V18.1299C15.5375 17.6531 15.4731 17.1737 15.311 16.7237C15.1489 16.2737 14.8929 15.8634 14.56 15.5199C17.7 15.1699 21 13.9799 21 8.51994C20.9997 7.12376 20.4627 5.78114 19.5 4.76994C19.9559 3.54844 19.9236 2.19829 19.41 0.999938C19.41 0.999938 18.23 0.649938 15.5 2.47994C13.208 1.85876 10.792 1.85876 8.5 2.47994C5.77 0.649938 4.59 0.999938 4.59 0.999938C4.07638 2.19829 4.04414 3.54844 4.5 4.76994C3.53013 5.78864 2.99252 7.1434 3 8.54994C3 13.9699 6.3 15.1599 9.44 15.5499C9.111 15.8899 8.85726 16.2953 8.69531 16.7399C8.53335 17.1844 8.46681 17.658 8.5 18.1299V21.9999" stroke="#1E1E1E" stroke-width="2" stroke-linecap="round" stroke-linejoin="round"/>
</svg>
