<svg width="16" height="12" viewBox="0 0 16 12" fill="none" xmlns="http://www.w3.org/2000/svg">
<path fill-rule="evenodd" clip-rule="evenodd" d="M10.7668 3.33333L10.5038 3.99715L9.33974 6.9355L8.76866 8.377L7.33333 12H9.10751L9.83505 10.0326H13.4217L14.162 12H16L12.5665 3.33333H10.8278H10.7668ZM10.6186 7.93479L10.3839 8.5632H11.1036H12.8856L11.6348 5.2136L10.6186 7.93479ZM9.52722 2.84224C9.55393 2.77481 9.58574 2.71045 9.62211 2.64954H6.41909V0H4.926V2.64954H0.540802V3.99715H4.31466C3.35062 5.79015 1.75173 7.51463 0 8.4283C0.329184 8.7138 0.811203 9.2391 1.04633 9.5931C2.55118 8.6795 3.90318 7.22912 4.926 5.57316V10.6667H6.41909V5.51606C6.81951 6.15256 7.26748 6.76169 7.7521 7.32292L8.31996 5.88955C7.80191 5.29052 7.34631 4.64699 6.9834 3.99715H9.06968L9.52722 2.84224Z" fill="white"/>
</svg>
