<svg  width="55" height="15" viewBox="0 0 55 15" fill="none">

<path d="M52.5312 7.14031L55.4996 15C54.6246 14.8749 53.7501 14.7183 52.8592 14.5777L51.1871 10.2343L49.4686 14.2188C48.625 14.0782 47.7964 14.0308 46.9529 13.9216L49.9686 7.04658L47.234 0H49.7657L51.2967 3.93711L52.9375 0H55.4996L52.5312 7.14031ZM45.2343 0H42.9375V13.625C43.6873 13.6719 44.4686 13.7028 45.2343 13.7965V0ZM40.9528 13.4685C38.8593 13.3279 36.7654 13.2032 34.6251 13.1559V0H36.9683V10.9373C38.3124 10.9687 39.656 11.0779 40.9528 11.1402V13.4685ZM32.1248 5.32805V7.67176H28.9221V12.9998H26.6093V0H33.1718V2.34371H28.9221V5.32805H32.1248ZM22.6718 2.34371V13.1249C21.8905 13.1249 21.0938 13.1249 20.3281 13.1559V2.34371H17.9061V0H25.1092V2.34371H22.6718ZM15.3749 7.79642C14.3439 7.79642 13.1249 7.79642 12.25 7.84375V11.3281C13.625 11.2339 15 11.1248 16.3905 11.0779V13.3279L9.90627 13.8438V0H16.3905V2.34371H12.25V5.49958C13.1563 5.49958 14.5468 5.45271 15.3749 5.45271V7.79642ZM2.39057 6.48421V14.6715C1.54701 14.7657 0.796701 14.8749 0 15V0H2.23451L5.28119 8.51579V0H7.62489V14.0308C6.79679 14.1719 5.95323 14.2188 5.06233 14.3434L2.39057 6.48421Z" fill="#E50914"/>
</svg>