<svg width="28" height="28" viewBox="0 0 28 28" fill="none" xmlns="http://www.w3.org/2000/svg">
<path d="M8.02461 14.3008L12.8 19.1949L4.90146 24.4316C4.90146 24.4316 3.94456 24.8491 2.81251 23.6319C1.68051 22.4146 2.06176 21.619 2.06176 21.619L8.02461 14.3008Z" fill="url(#paint0_radial_157_605)"/>
<path d="M8.5172 13.0996L14 19.0755L8.5308 22.9022C8.5308 22.9022 6.91445 23.5492 5.04935 21.5086C3.1843 19.4679 3.9599 18.2553 3.9599 18.2553L8.5172 13.0996Z" fill="url(#paint1_radial_157_605)"/>
<path d="M15.5 2.50977L25.55 12.8394L12.2662 21.2071C12.2662 21.2071 10.3729 21.1276 8.1989 18.7449C6.0249 16.3622 6.7048 13.9051 6.7048 13.9051L15.5 2.50977Z" fill="url(#paint2_radial_157_605)"/>
<path d="M24.8354 3.6758C27.5522 6.64035 27.9929 10.6441 25.8193 12.6185C23.6458 14.593 19.6814 13.7903 16.9646 10.8258C14.2477 7.8612 13.8072 3.8574 15.9807 1.883C18.1542 -0.0914199 22.1186 0.71126 24.8354 3.6758Z" fill="url(#paint3_radial_157_605)"/>
<path d="M25.1894 11.6275C23.4061 13.2516 20.1072 12.5408 17.8211 10.0399C15.535 7.539 15.1274 4.195 16.9107 2.57095C18.694 0.946816 21.9929 1.6576 24.279 4.15855C26.5649 6.65945 26.9726 10.0034 25.1894 11.6275Z" fill="url(#paint4_radial_157_605)"/>
<path opacity="0.85" d="M25.8392 10.4115C26.288 8.08924 25.8272 6.29669 24.0802 4.30994C22.3331 2.32319 19.6754 1.43284 17.8898 2.37989C15.6855 3.54899 20.1867 2.79804 22.7289 5.79074C24.913 8.36199 25.4258 12.5504 25.8392 10.4115Z" fill="url(#paint5_radial_157_605)"/>
<path opacity="0.4" d="M21.199 8.62259C21.2275 9.36194 20.6466 9.88384 19.9016 9.78829C19.1566 9.69279 18.5295 9.01599 18.501 8.27659C18.4725 7.53724 19.0534 7.01534 19.7984 7.11089C20.5434 7.20639 21.1705 7.88319 21.199 8.62259Z" fill="url(#paint6_radial_157_605)"/>
<path opacity="0.6" d="M14.2496 7L9.0017 13.6794C8.95365 14.7283 9.93395 16.2747 10.8055 16.9152L16.406 11.4533C15.5888 10.5983 14.2683 8.5493 14.2496 7Z" fill="url(#paint7_radial_157_605)"/>
<path fill-rule="evenodd" clip-rule="evenodd" d="M6.0288 0.800781L6.7395 1.85935L8 1.5327L7.17875 2.5136L7.88945 3.5722L6.6712 3.11985L5.85 4.1008L5.91825 2.8403L4.7 2.38795L5.96045 2.06125L6.0288 0.800781ZM25.388 22.4008L25.4811 24.2343L27.2 24.7094L25.5387 25.3674L25.6318 27.2008L24.5119 25.774L22.8507 26.4319L23.8198 24.8922L22.7 23.4654L24.4188 23.9406L25.388 22.4008ZM3.603 8.10505L3.9384 6.5008L2.73965 7.5982L1.34265 6.77815L1.99875 8.2765L0.799988 9.3739L2.40425 9.2025L3.06035 10.7008L3.39575 9.09655L5 8.9251L3.603 8.10505Z" fill="url(#paint8_linear_157_605)"/>
<defs>
<radialGradient id="paint0_radial_157_605" cx="0" cy="0" r="1" gradientUnits="userSpaceOnUse" gradientTransform="translate(14.3438 12.3508) rotate(135) scale(17.4567)">
<stop stop-color="#99421D"/>
<stop offset="0.333333" stop-color="#99161D"/>
<stop offset="0.666667" stop-color="#7D1845"/>
<stop offset="1" stop-color="#59216E"/>
</radialGradient>
<radialGradient id="paint1_radial_157_605" cx="0" cy="0" r="1" gradientUnits="userSpaceOnUse" gradientTransform="translate(17.2968 9.64961) rotate(135) scale(22.2738 22.2639)">
<stop stop-color="#EF7744"/>
<stop offset="0.333333" stop-color="#E50914"/>
<stop offset="0.666667" stop-color="#A70D53"/>
<stop offset="1" stop-color="#792A95"/>
</radialGradient>
<radialGradient id="paint2_radial_157_605" cx="0" cy="0" r="1" gradientUnits="userSpaceOnUse" gradientTransform="translate(17.15 10.553) rotate(135) scale(15.9063)">
<stop stop-color="#FB540D"/>
<stop offset="0.333333" stop-color="#E50914"/>
<stop offset="0.666667" stop-color="#A70D53"/>
<stop offset="1" stop-color="#792A95"/>
</radialGradient>
<radialGradient id="paint3_radial_157_605" cx="0" cy="0" r="1" gradientUnits="userSpaceOnUse" gradientTransform="translate(24.8375 3.3539) rotate(134.326) scale(12.0216 12.0184)">
<stop stop-color="#FFDCCC"/>
<stop offset="0.333333" stop-color="#FFBDC0"/>
<stop offset="0.666667" stop-color="#F89DC6"/>
<stop offset="1" stop-color="#E4A1FA"/>
</radialGradient>
<radialGradient id="paint4_radial_157_605" cx="0" cy="0" r="1" gradientUnits="userSpaceOnUse" gradientTransform="translate(22.0653 6.6365) rotate(141.875) scale(4.93569 6.40795)">
<stop offset="0.307292" stop-color="#F89DC6"/>
<stop offset="0.645392" stop-color="#E75094"/>
<stop offset="1" stop-color="#59216E"/>
</radialGradient>
<radialGradient id="paint5_radial_157_605" cx="0" cy="0" r="1" gradientUnits="userSpaceOnUse" gradientTransform="translate(23.9 3.79999) rotate(135) scale(6.5761)">
<stop stop-color="white"/>
<stop offset="1" stop-color="white" stop-opacity="0"/>
</radialGradient>
<radialGradient id="paint6_radial_157_605" cx="0" cy="0" r="1" gradientUnits="userSpaceOnUse" gradientTransform="translate(20.6181 7.48239) rotate(131.079) scale(2.54322 3.003)">
<stop stop-color="white"/>
<stop offset="1" stop-color="white" stop-opacity="0"/>
</radialGradient>
<radialGradient id="paint7_radial_157_605" cx="0" cy="0" r="1" gradientUnits="userSpaceOnUse" gradientTransform="translate(14.2267 11.0657) rotate(137.622) scale(6.7882)">
<stop stop-color="#FFA984"/>
<stop offset="1" stop-color="#F7636B" stop-opacity="0"/>
</radialGradient>
<linearGradient id="paint8_linear_157_605" x1="18.325" y1="9.9508" x2="8.125" y2="20.1508" gradientUnits="userSpaceOnUse">
<stop stop-color="#EF7744"/>
<stop offset="0.333333" stop-color="#E50914"/>
<stop offset="0.666667" stop-color="#A70D53"/>
<stop offset="1" stop-color="#792A95"/>
</linearGradient>
</defs>
</svg>
